<mxfile host="Electron" modified="2023-08-03T20:14:22.514Z" agent="Mozilla/5.0 (Windows NT 10.0; Win64; x64) AppleWebKit/537.36 (KHTML, like Gecko) draw.io/21.2.8 Chrome/112.0.5615.165 Electron/24.2.0 Safari/537.36" etag="ULuO3_Jbg6PV3tgqBt5F" version="21.2.8" type="device">
  <diagram name="Страница 1" id="i8Dcqg-i0q5CY9Y-TwQl">
    <mxGraphModel dx="839" dy="1228" grid="1" gridSize="10" guides="1" tooltips="1" connect="1" arrows="1" fold="1" page="1" pageScale="1" pageWidth="827" pageHeight="1169" math="0" shadow="0">
      <root>
        <mxCell id="0" />
        <mxCell id="1" parent="0" />
        <mxCell id="YilaY15EE9fsybsba5f6-3" value="" style="edgeStyle=orthogonalEdgeStyle;rounded=0;orthogonalLoop=1;jettySize=auto;html=1;" edge="1" parent="1" source="YilaY15EE9fsybsba5f6-1" target="YilaY15EE9fsybsba5f6-2">
          <mxGeometry relative="1" as="geometry" />
        </mxCell>
        <mxCell id="YilaY15EE9fsybsba5f6-1" value="START&lt;br&gt;" style="ellipse;whiteSpace=wrap;html=1;" vertex="1" parent="1">
          <mxGeometry x="356" y="60" width="116" height="50" as="geometry" />
        </mxCell>
        <mxCell id="YilaY15EE9fsybsba5f6-5" value="" style="edgeStyle=orthogonalEdgeStyle;rounded=0;orthogonalLoop=1;jettySize=auto;html=1;" edge="1" parent="1" source="YilaY15EE9fsybsba5f6-2" target="YilaY15EE9fsybsba5f6-4">
          <mxGeometry relative="1" as="geometry" />
        </mxCell>
        <mxCell id="YilaY15EE9fsybsba5f6-2" value="inputArray" style="shape=parallelogram;perimeter=parallelogramPerimeter;whiteSpace=wrap;html=1;fixedSize=1;" vertex="1" parent="1">
          <mxGeometry x="301" y="140" width="226" height="50" as="geometry" />
        </mxCell>
        <mxCell id="YilaY15EE9fsybsba5f6-8" value="" style="edgeStyle=orthogonalEdgeStyle;rounded=0;orthogonalLoop=1;jettySize=auto;html=1;" edge="1" parent="1" source="YilaY15EE9fsybsba5f6-4" target="YilaY15EE9fsybsba5f6-7">
          <mxGeometry relative="1" as="geometry" />
        </mxCell>
        <mxCell id="YilaY15EE9fsybsba5f6-4" value="outputArray = 0" style="rounded=0;whiteSpace=wrap;html=1;" vertex="1" parent="1">
          <mxGeometry x="324" y="220" width="179" height="40" as="geometry" />
        </mxCell>
        <mxCell id="YilaY15EE9fsybsba5f6-10" value="" style="edgeStyle=orthogonalEdgeStyle;rounded=0;orthogonalLoop=1;jettySize=auto;html=1;" edge="1" parent="1" source="YilaY15EE9fsybsba5f6-7" target="YilaY15EE9fsybsba5f6-9">
          <mxGeometry relative="1" as="geometry" />
        </mxCell>
        <mxCell id="YilaY15EE9fsybsba5f6-15" value="" style="edgeStyle=orthogonalEdgeStyle;rounded=0;orthogonalLoop=1;jettySize=auto;html=1;" edge="1" parent="1" source="YilaY15EE9fsybsba5f6-7" target="YilaY15EE9fsybsba5f6-14">
          <mxGeometry relative="1" as="geometry" />
        </mxCell>
        <mxCell id="YilaY15EE9fsybsba5f6-7" value="i = 0, i &amp;lt; inputArray.lenght, i++" style="shape=hexagon;perimeter=hexagonPerimeter2;whiteSpace=wrap;html=1;fixedSize=1;" vertex="1" parent="1">
          <mxGeometry x="299" y="290" width="230" height="40" as="geometry" />
        </mxCell>
        <mxCell id="YilaY15EE9fsybsba5f6-12" value="" style="edgeStyle=orthogonalEdgeStyle;rounded=0;orthogonalLoop=1;jettySize=auto;html=1;" edge="1" parent="1" source="YilaY15EE9fsybsba5f6-9" target="YilaY15EE9fsybsba5f6-11">
          <mxGeometry relative="1" as="geometry" />
        </mxCell>
        <mxCell id="YilaY15EE9fsybsba5f6-9" value="str = inputArray[i]" style="rounded=0;whiteSpace=wrap;html=1;" vertex="1" parent="1">
          <mxGeometry x="326" y="360" width="176" height="30" as="geometry" />
        </mxCell>
        <mxCell id="YilaY15EE9fsybsba5f6-24" value="no" style="edgeStyle=orthogonalEdgeStyle;rounded=0;orthogonalLoop=1;jettySize=auto;html=1;" edge="1" parent="1" source="YilaY15EE9fsybsba5f6-11" target="YilaY15EE9fsybsba5f6-22">
          <mxGeometry relative="1" as="geometry" />
        </mxCell>
        <mxCell id="YilaY15EE9fsybsba5f6-27" value="" style="edgeStyle=orthogonalEdgeStyle;rounded=0;orthogonalLoop=1;jettySize=auto;html=1;" edge="1" parent="1" source="YilaY15EE9fsybsba5f6-11" target="YilaY15EE9fsybsba5f6-19">
          <mxGeometry relative="1" as="geometry" />
        </mxCell>
        <mxCell id="YilaY15EE9fsybsba5f6-11" value="str.lenght &amp;lt;= 3" style="rhombus;whiteSpace=wrap;html=1;" vertex="1" parent="1">
          <mxGeometry x="354" y="420" width="120" height="80" as="geometry" />
        </mxCell>
        <mxCell id="YilaY15EE9fsybsba5f6-17" value="" style="edgeStyle=orthogonalEdgeStyle;rounded=0;orthogonalLoop=1;jettySize=auto;html=1;" edge="1" parent="1" source="YilaY15EE9fsybsba5f6-14" target="YilaY15EE9fsybsba5f6-16">
          <mxGeometry relative="1" as="geometry" />
        </mxCell>
        <mxCell id="YilaY15EE9fsybsba5f6-14" value="outputArray" style="shape=document;whiteSpace=wrap;html=1;boundedLbl=1;" vertex="1" parent="1">
          <mxGeometry x="570" y="290" width="80" height="40" as="geometry" />
        </mxCell>
        <mxCell id="YilaY15EE9fsybsba5f6-16" value="FINISH" style="ellipse;whiteSpace=wrap;html=1;" vertex="1" parent="1">
          <mxGeometry x="690" y="285" width="116" height="50" as="geometry" />
        </mxCell>
        <mxCell id="YilaY15EE9fsybsba5f6-28" style="edgeStyle=orthogonalEdgeStyle;rounded=0;orthogonalLoop=1;jettySize=auto;html=1;entryX=0;entryY=0.5;entryDx=0;entryDy=0;" edge="1" parent="1" source="YilaY15EE9fsybsba5f6-19" target="YilaY15EE9fsybsba5f6-7">
          <mxGeometry relative="1" as="geometry">
            <Array as="points">
              <mxPoint x="617" y="620" />
              <mxPoint x="190" y="620" />
              <mxPoint x="190" y="310" />
            </Array>
          </mxGeometry>
        </mxCell>
        <mxCell id="YilaY15EE9fsybsba5f6-19" value="&lt;div style=&quot;text-align: left;&quot;&gt;&lt;span style=&quot;background-color: initial;&quot;&gt;outputArray[outputArray.Length - 1] = str&lt;/span&gt;&lt;br&gt;&lt;/div&gt;" style="rounded=0;whiteSpace=wrap;html=1;" vertex="1" parent="1">
          <mxGeometry x="503" y="440" width="227" height="40" as="geometry" />
        </mxCell>
        <mxCell id="YilaY15EE9fsybsba5f6-26" style="edgeStyle=orthogonalEdgeStyle;rounded=0;orthogonalLoop=1;jettySize=auto;html=1;entryX=0;entryY=0.5;entryDx=0;entryDy=0;" edge="1" parent="1" source="YilaY15EE9fsybsba5f6-22" target="YilaY15EE9fsybsba5f6-11">
          <mxGeometry relative="1" as="geometry">
            <Array as="points">
              <mxPoint x="320" y="550" />
              <mxPoint x="320" y="460" />
            </Array>
          </mxGeometry>
        </mxCell>
        <mxCell id="YilaY15EE9fsybsba5f6-22" value="i++" style="rounded=0;whiteSpace=wrap;html=1;" vertex="1" parent="1">
          <mxGeometry x="368" y="530" width="91" height="40" as="geometry" />
        </mxCell>
      </root>
    </mxGraphModel>
  </diagram>
</mxfile>
